<?xml version="1.0" encoding="UTF-8" standalone="no"?>
<!DOCTYPE svg PUBLIC "-//W3C//DTD SVG 1.1//EN" "http://www.w3.org/Graphics/SVG/1.1/DTD/svg11.dtd">
<svg width="100%" height="100%" viewBox="0 0 128 128" version="1.1" xmlns="http://www.w3.org/2000/svg" xmlns:xlink="http://www.w3.org/1999/xlink" xml:space="preserve" xmlns:serif="http://www.serif.com/" style="fill-rule:evenodd;clip-rule:evenodd;">
    <g id="Слой_x0020_1">
        <g id="_2504482219632">
            <rect x="0" y="0" width="128" height="128" style="fill:none;"/>
            <path d="M21,45L21,46C22,81 63,124 63,124C63,124 108,81 108,45C108,21 88,1 64,1C40,1 21,21 21,45ZM64,20C78,20 90,31 90,45C90,59 78,71 64,71C50,71 39,59 39,45C39,31 50,20 64,20Z" style="fill:rgb(0,255,217);stroke:black;stroke-width:0.22px;"/>
        </g>
    </g>
</svg>
